<svg xmlns="http://www.w3.org/2000/svg" width="16" height="16" fill="currentColor" class="bi bi-mervlot" viewBox="0 0 16 16">
<path d="M28.497 2.573c0.023-0.004 0.376-0.006 0.785-0.005l0.742 0.003 0.077 0.059c0.047 0.036 0.086 0.089 0.101 0.138 0.035 0.115 0.058 2.105 0.074 6.365 0.008 2.014 0.021 4.176 0.029 4.804s0.017 2.029 0.020 3.111c0.002 1.083 0.008 2.478 0.012 3.101 0.016 2.603-0.068 4.416-0.23 4.974-0.015 0.052-0.034 0.129-0.043 0.169-0.024 0.119-0.136 0.444-0.205 0.593-0.024 0.052-0.062 0.133-0.083 0.18-0.256 0.56-0.933 1.314-1.661 1.852-0.316 0.233-0.849 0.488-1.279 0.612-0.087 0.025-0.187 0.054-0.222 0.065-0.436 0.129-1.207 0.178-1.968 0.127-0.312-0.021-0.796-0.085-0.942-0.124-0.041-0.011-0.16-0.040-0.265-0.065-0.199-0.047-0.358-0.094-0.466-0.137-0.035-0.014-0.121-0.048-0.19-0.075-0.156-0.060-0.666-0.321-0.789-0.404-0.050-0.034-0.096-0.061-0.102-0.061s-0.074-0.044-0.152-0.099c-0.31-0.216-0.727-0.599-0.976-0.896-0.073-0.087-0.154-0.183-0.181-0.212-0.055-0.061-0.36-0.493-0.501-0.709-0.203-0.311-0.251-0.389-0.251-0.404 0-0.009-0.014-0.031-0.030-0.049s-0.055-0.081-0.086-0.139c-0.031-0.058-0.073-0.135-0.095-0.172-0.057-0.095-0.278-0.515-0.483-0.918-0.098-0.192-0.199-0.387-0.224-0.434s-0.069-0.137-0.096-0.201c-0.027-0.064-0.090-0.202-0.14-0.307-0.179-0.377-0.261-0.552-0.319-0.677-0.032-0.070-0.098-0.213-0.148-0.317s-0.116-0.248-0.148-0.317c-0.032-0.070-0.12-0.256-0.195-0.413s-0.163-0.343-0.196-0.413c-0.108-0.233-0.307-0.635-0.319-0.645-0.016-0.015-0.138-0.27-0.349-0.73-0.050-0.11-0.476-0.989-0.543-1.122-0.107-0.212-0.183-0.267-0.256-0.185-0.043 0.048-0.394 0.754-0.502 1.011-0.032 0.076-0.235 0.5-0.445 0.931-0.113 0.233-0.256 0.528-0.318 0.656-0.172 0.36-0.723 1.457-0.782 1.556-0.010 0.017-0.032 0.060-0.049 0.095-0.029 0.062-0.118 0.23-0.28 0.529-0.044 0.081-0.103 0.184-0.131 0.229s-0.060 0.101-0.071 0.127c-0.011 0.026-0.030 0.061-0.041 0.078s-0.069 0.117-0.128 0.222c-0.059 0.105-0.117 0.205-0.128 0.222s-0.031 0.058-0.043 0.090c-0.013 0.032-0.032 0.058-0.042 0.058s-0.019 0.012-0.019 0.027c0 0.015-0.032 0.075-0.070 0.134s-0.077 0.12-0.085 0.137c-0.008 0.017-0.031 0.056-0.051 0.087-0.036 0.056-0.14 0.225-0.339 0.551-0.055 0.090-0.112 0.18-0.126 0.201s-0.058 0.085-0.097 0.144c-0.236 0.357-0.659 0.938-0.811 1.111-0.015 0.017-0.097 0.113-0.181 0.212-0.187 0.218-0.8 0.837-0.99 0.998-0.411 0.349-0.929 0.69-1.354 0.892-0.255 0.121-0.401 0.184-0.431 0.184-0.013 0-0.048 0.013-0.077 0.028-0.051 0.026-0.18 0.068-0.513 0.165-0.084 0.025-0.182 0.053-0.217 0.063-0.739 0.217-2.057 0.3-3.111 0.196-0.299-0.029-0.46-0.057-0.976-0.165-0.251-0.053-1.246-0.358-1.511-0.463-0.201-0.080-0.484-0.256-0.567-0.353-0.054-0.063-0.11-0.217-0.11-0.3 0-0.13 0.056-0.3 0.191-0.578 0.068-0.14 0.144-0.302 0.169-0.36 0.056-0.128 0.096-0.216 0.212-0.466 0.099-0.214 0.205-0.493 0.275-0.73 0.026-0.087 0.056-0.182 0.067-0.21 0.023-0.060 0.072-0.268 0.114-0.489 0.032-0.169 0.058-0.394 0.095-0.836 0.031-0.374 0.055-3.644 0.082-11.46 0.028-8.272 0.035-9.103 0.076-9.524 0.050-0.511 0.127-0.658 0.364-0.691 0.068-0.010 0.747-0.018 1.51-0.018 1.806 0 2.64 0.041 3.228 0.16 0.296 0.060 0.932 0.209 1.036 0.243 0.338 0.111 0.683 0.243 0.912 0.348 0.070 0.032 0.184 0.085 0.254 0.117 0.134 0.061 0.19 0.089 0.413 0.206 0.153 0.080 0.257 0.143 0.476 0.288 0.082 0.054 0.164 0.108 0.183 0.119 0.041 0.025 0.214 0.15 0.512 0.371 0.118 0.088 0.239 0.174 0.268 0.193s0.104 0.083 0.167 0.144c0.063 0.061 0.142 0.128 0.177 0.149 0.054 0.033 0.35 0.299 0.554 0.499 0.14 0.137 0.474 0.497 0.59 0.636 0.067 0.080 0.148 0.174 0.18 0.209 0.075 0.082 0.218 0.252 0.389 0.464 0.209 0.259 0.259 0.324 0.436 0.569 0.091 0.126 0.204 0.28 0.252 0.343 0.096 0.126 0.211 0.29 0.325 0.464 0.071 0.108 0.136 0.204 0.331 0.488 0.108 0.157 0.59 0.895 0.675 1.033 0.034 0.056 0.091 0.147 0.126 0.202s0.125 0.201 0.199 0.326c0.146 0.243 0.235 0.355 0.284 0.355 0.056 0 0.192-0.161 0.396-0.468 0.809-1.217 0.936-1.401 1.417-2.052 0.041-0.055 0.131-0.18 0.2-0.277s0.217-0.295 0.328-0.439c0.111-0.145 0.265-0.345 0.341-0.444s0.243-0.306 0.37-0.458c0.837-0.996 1.255-1.41 1.965-1.944 0.31-0.233 0.707-0.506 0.818-0.563 0.029-0.015 0.072-0.044 0.096-0.066 0.044-0.040 0.792-0.423 1.066-0.547 0.17-0.076 0.607-0.236 0.828-0.302 0.076-0.023 0.195-0.059 0.265-0.081s0.175-0.049 0.233-0.060c0.058-0.011 0.182-0.040 0.276-0.063s0.236-0.053 0.317-0.067c0.081-0.013 0.207-0.038 0.279-0.055 0.367-0.087 1.284-0.185 2.059-0.221 0.262-0.012 0.495-0.025 0.519-0.029zM25.31 7.241c-0.088 0.007-0.193 0.023-0.233 0.035s-0.109 0.028-0.154 0.036c-0.045 0.008-0.097 0.022-0.116 0.032s-0.073 0.035-0.119 0.054c-0.282 0.117-0.608 0.293-0.822 0.443-0.487 0.342-0.81 0.633-1.21 1.091-0.146 0.167-0.491 0.64-0.614 0.842-0.012 0.019-0.097 0.149-0.19 0.288s-0.179 0.27-0.19 0.291c-0.012 0.021-0.074 0.121-0.138 0.223s-0.124 0.2-0.133 0.217c-0.009 0.017-0.068 0.113-0.131 0.212s-0.174 0.28-0.247 0.402c-0.072 0.122-0.137 0.227-0.144 0.233s-0.039 0.063-0.071 0.127c-0.032 0.064-0.076 0.145-0.099 0.18s-0.075 0.128-0.117 0.207c-0.042 0.079-0.11 0.195-0.15 0.258s-0.074 0.121-0.074 0.128c0 0.010-0.105 0.197-0.226 0.402-0.014 0.023-0.043 0.076-0.065 0.117-0.179 0.334-0.226 0.417-0.251 0.446-0.016 0.018-0.029 0.041-0.029 0.050s-0.032 0.070-0.071 0.136c-0.039 0.066-0.103 0.176-0.141 0.246s-0.123 0.216-0.188 0.324c-0.113 0.187-0.154 0.261-0.198 0.349-0.029 0.058-0.025 0.196 0.007 0.273 0.015 0.038 0.084 0.164 0.153 0.28s0.21 0.369 0.315 0.561c0.105 0.192 0.204 0.364 0.22 0.383s0.030 0.041 0.030 0.050c0 0.009 0.094 0.175 0.209 0.369 0.239 0.403 0.531 0.902 0.646 1.103 0.043 0.076 0.135 0.231 0.205 0.346s0.126 0.213 0.126 0.218c0 0.013 0.379 0.651 0.639 1.076 0.064 0.105 0.21 0.357 0.324 0.561s0.243 0.427 0.285 0.497c0.043 0.070 0.133 0.227 0.2 0.349s0.154 0.275 0.193 0.339c0.039 0.064 0.095 0.162 0.125 0.218 0.052 0.098 0.182 0.326 0.437 0.766 0.122 0.21 0.186 0.325 0.275 0.487 0.025 0.047 0.091 0.161 0.146 0.254s0.17 0.288 0.256 0.434c0.086 0.145 0.175 0.295 0.199 0.332s0.071 0.114 0.105 0.169c0.128 0.209 0.216 0.34 0.356 0.529 0.31 0.417 0.519 0.54 0.732 0.431 0.164-0.084 0.282-0.263 0.351-0.533 0.081-0.316 0.089-0.994 0.108-8.876 0.007-2.968 0.022-5.516 0.032-5.661 0.021-0.278 0.048-0.787 0.083-1.541 0.020-0.427 0.010-0.6-0.037-0.673-0.055-0.085-0.318-0.134-0.599-0.112zM7.35 7.351c-0.037 0.014-0.083 0.040-0.101 0.058-0.066 0.066-0.096 0.331-0.116 1.047-0.011 0.384-0.031 0.87-0.045 1.079-0.018 0.275-0.021 0.952-0.012 2.434 0.007 1.129 0.017 2.074 0.023 2.1 0.015 0.075 0.037 2.798 0.056 6.895 0.018 3.998 0.020 4.090 0.111 4.141 0.105 0.059 0.434-0.23 0.847-0.744 0.182-0.226 0.421-0.553 0.575-0.783 0.105-0.157 0.195-0.29 0.201-0.296 0.042-0.042 0.512-0.737 0.773-1.143 0.056-0.087 0.161-0.249 0.232-0.36s0.153-0.239 0.18-0.286c0.046-0.078 0.171-0.277 0.286-0.455 0.067-0.105 0.427-0.667 0.508-0.794 0.136-0.213 0.271-0.428 0.399-0.635 0.072-0.116 0.169-0.269 0.216-0.339 0.1-0.152 0.107-0.163 0.235-0.38 0.055-0.093 0.138-0.231 0.186-0.307s0.098-0.157 0.112-0.18c0.014-0.023 0.164-0.275 0.334-0.56s0.318-0.533 0.328-0.55c0.010-0.017 0.116-0.198 0.235-0.402s0.248-0.424 0.287-0.49c0.039-0.066 0.071-0.125 0.071-0.131s0.030-0.063 0.067-0.124c0.24-0.404 0.47-0.955 0.494-1.183 0.015-0.14-0.018-0.416-0.054-0.452-0.011-0.011-0.020-0.033-0.020-0.049s-0.020-0.073-0.044-0.128c-0.024-0.055-0.058-0.133-0.075-0.173-0.080-0.189-0.117-0.264-0.317-0.664-0.243-0.484-0.288-0.57-0.307-0.585-0.007-0.006-0.020-0.033-0.028-0.060s-0.043-0.090-0.076-0.14c-0.033-0.049-0.071-0.113-0.084-0.141s-0.034-0.070-0.048-0.093c-0.014-0.023-0.063-0.109-0.11-0.19s-0.099-0.174-0.116-0.205c-0.018-0.031-0.087-0.148-0.154-0.258s-0.122-0.207-0.122-0.214c0-0.007-0.010-0.024-0.022-0.038-0.032-0.037-0.19-0.286-0.19-0.299 0-0.029-0.491-0.782-0.661-1.012-0.015-0.020-0.075-0.104-0.133-0.186-0.11-0.154-0.467-0.626-0.506-0.669-0.012-0.013-0.051-0.061-0.086-0.106-0.102-0.132-0.644-0.677-0.802-0.808-0.080-0.066-0.175-0.147-0.212-0.179s-0.104-0.085-0.15-0.116c-0.047-0.032-0.092-0.069-0.102-0.084s-0.025-0.027-0.035-0.027c-0.010 0-0.107-0.059-0.216-0.131s-0.269-0.168-0.357-0.214c-0.087-0.045-0.183-0.095-0.212-0.111-0.172-0.093-0.551-0.211-0.88-0.273-0.199-0.038-0.268-0.039-0.362-0.005z"></path>
</svg>