<svg xmlns="http://www.w3.org/2000/svg" xmlns:xlink="http://www.w3.org/1999/xlink" width="500" zoomAndPan="magnify" viewBox="0 0 375 374.999991" height="500" preserveAspectRatio="xMidYMid meet" version="1.0"><path fill="#000000" d="M 211.304688 93.628906 C 205.117188 94.710938 199.183594 97.140625 193.371094 100.980469 C 189.410156 103.59375 182.445312 110.535156 179.863281 114.441406 C 175.996094 120.285156 171.917969 130.253906 170.625 137.027344 C 170.078125 139.886719 169.863281 140.308594 167.691406 142.820312 C 166.734375 143.929688 163.773438 147.390625 161.113281 150.511719 C 158.453125 153.632812 155.5 157.09375 154.550781 158.203125 C 148.765625 164.9375 136.199219 179.851562 130.796875 186.394531 C 111.820312 209.386719 101.203125 222.5625 100.550781 223.933594 C 98.871094 227.476562 102.382812 230.636719 110.28125 232.683594 L 113.558594 233.53125 L 111.070312 236.261719 C 109.699219 237.765625 103.859375 244.019531 98.085938 250.164062 C 85.421875 263.644531 84.3125 264.925781 83.863281 266.597656 C 83.378906 268.390625 83.980469 270.355469 85.367188 271.523438 C 86.371094 272.367188 86.789062 272.460938 89.582031 272.460938 C 95.109375 272.460938 101.773438 270.632812 110.46875 266.734375 C 116.710938 263.933594 120.65625 261.882812 132.871094 255.085938 C 139.730469 251.273438 143.480469 249.390625 144.214844 249.390625 C 145.429688 249.390625 164.261719 253.144531 167.191406 253.972656 C 168.738281 254.40625 169.394531 254.898438 171.210938 256.976562 C 178.289062 265.066406 186.984375 274.386719 187.894531 274.855469 C 188.761719 275.304688 191.605469 275.445312 203.335938 275.628906 L 217.710938 275.855469 L 218.707031 275.058594 C 220.808594 273.371094 220.257812 269.238281 217.515625 266.121094 C 214.507812 262.707031 212.503906 262.058594 203.105469 261.457031 C 196.714844 261.046875 196.433594 260.996094 195.4375 260.0625 C 194.066406 258.777344 188.832031 252.332031 189.011719 252.148438 C 189.09375 252.070312 190.71875 251.738281 192.632812 251.410156 C 207.136719 248.921875 219.714844 243.621094 231.046875 235.21875 C 235.085938 232.222656 243.324219 223.824219 246.726562 219.230469 C 259.933594 201.398438 265.269531 181.183594 263.285156 156.453125 C 262.960938 152.425781 262.992188 151.070312 263.476562 148.265625 C 264.402344 142.902344 265.71875 140.804688 272.53125 133.8125 C 275.828125 130.429688 278.382812 127.5 278.523438 126.945312 C 279.179688 124.328125 277.472656 122.480469 273.128906 121.113281 C 271.453125 120.582031 267.445312 119.324219 264.222656 118.316406 L 258.363281 116.480469 L 255.613281 112.914062 C 248.351562 103.488281 239.96875 97.199219 231.332031 94.695312 C 225.320312 92.953125 217.546875 92.539062 211.304688 93.628906 M 214.78125 99.460938 C 204.765625 100.867188 196.660156 104.953125 189.644531 112.132812 C 182.925781 119.003906 178.820312 127.15625 176.15625 138.925781 C 175.230469 142.996094 175.976562 141.929688 166.269531 153.109375 C 162.28125 157.703125 155.15625 166.019531 149.660156 172.484375 C 137.398438 186.921875 106.933594 224.257812 106.933594 224.847656 C 106.933594 225.328125 109.808594 226.328125 113.328125 227.074219 C 121.257812 228.75 135.175781 228.890625 146.679688 227.414062 C 169.15625 224.53125 187.398438 217.011719 198.917969 205.882812 C 203.738281 201.226562 205.945312 198.371094 208.378906 193.664062 C 214 182.777344 213.40625 171.808594 206.566406 160.1875 C 205.570312 158.492188 204.949219 157.109375 205.191406 157.113281 C 205.9375 157.128906 210.738281 161.207031 212.726562 163.511719 C 215.160156 166.335938 217.664062 171.304688 218.460938 174.894531 C 218.945312 177.066406 219.042969 178.695312 218.886719 181.964844 C 218.632812 187.222656 217.628906 191.375 215.554688 195.753906 C 207.980469 211.746094 190.457031 223.929688 166.394531 229.933594 C 153.492188 233.152344 143.253906 234.371094 129.058594 234.375 L 120.238281 234.375 L 117.71875 237.03125 C 116.335938 238.488281 113.710938 241.257812 111.890625 243.175781 C 110.070312 245.097656 107.34375 247.988281 105.835938 249.601562 C 104.324219 251.214844 100.519531 255.246094 97.378906 258.5625 C 94.238281 261.875 91.148438 265.183594 90.515625 265.914062 L 89.359375 267.242188 L 91.097656 267.078125 C 93.792969 266.816406 98.714844 265.546875 102.539062 264.125 C 110.234375 261.261719 116.273438 258.242188 134.214844 248.304688 L 142.273438 243.839844 L 144.652344 244.03125 C 148.699219 244.355469 169.273438 248.667969 170.964844 249.542969 C 171.5 249.820312 174.492188 252.898438 177.613281 256.382812 C 183.605469 263.070312 186.960938 266.753906 188.796875 268.660156 C 189.828125 269.734375 190.140625 269.835938 193.007812 270.03125 C 194.710938 270.148438 200.101562 270.34375 204.988281 270.464844 C 212.757812 270.660156 213.867188 270.621094 213.867188 270.136719 C 213.867188 269.007812 211.765625 267.609375 209.472656 267.207031 C 208.769531 267.085938 205.238281 266.804688 201.625 266.585938 C 196.585938 266.277344 194.757812 266.03125 193.753906 265.515625 C 192.539062 264.898438 189.945312 261.917969 185.601562 256.164062 C 182.683594 252.292969 182.15625 250.621094 183.304688 248.863281 C 184.074219 247.691406 185.085938 247.351562 190.414062 246.472656 C 199.722656 244.933594 207.4375 242.550781 214.78125 238.945312 C 237.691406 227.707031 252.945312 207.121094 257.511719 181.273438 C 258.191406 177.414062 258.320312 175.292969 258.339844 167.722656 C 258.347656 162.789062 258.292969 156.117188 258.210938 152.894531 C 258.078125 147.5625 258.136719 146.800781 258.894531 144.46875 C 260.605469 139.191406 262.378906 136.546875 267.851562 131.117188 C 270.179688 128.808594 271.960938 126.808594 271.816406 126.671875 C 271.539062 126.421875 267.496094 125.097656 260.742188 123.042969 C 255.105469 121.332031 254.875 121.183594 251.910156 117.285156 C 245.113281 108.363281 237.136719 102.546875 228.621094 100.296875 C 225.851562 99.566406 217.578125 99.066406 214.78125 99.460938 M 227.417969 121.175781 C 222.472656 122.242188 219.265625 127.851562 220.882812 132.605469 C 223.1875 139.378906 232.152344 141.035156 236.210938 135.433594 C 241.066406 128.730469 235.351562 119.460938 227.417969 121.175781 " fill-opacity="1" fill-rule="evenodd"/></svg>